<svg xmlns="http://www.w3.org/2000/svg" height="24" viewBox="0 -960 960 960" width="24"><path d="M404.615-152.154v-221.671l54.462-155.559q2.692-4.847 6.423-7.731Q469.231-540 477.077-540h285.846q6.715 0 11.512 2.885 4.796 2.884 6.488 7.731l54.462 155.559v221.671q0 7.095-4.837 11.932-4.838 4.838-11.932 4.838h-6.462q-7.095 0-11.932-4.838-4.837-4.837-4.837-11.932v-50.923H444.616v50.923q0 7.095-4.838 11.932-4.837 4.838-11.932 4.838h-6.461q-7.095 0-11.932-4.838-4.838-4.837-4.838-11.932Zm49.231-254h332.308L752-504.615H488l-34.154 98.461ZM440-370.769v132.308-132.308Zm63.077 98.462q15.038 0 25.212-10.173 10.173-10.174 10.173-25.212t-10.173-25.212q-10.174-10.173-25.212-10.173t-25.212 10.173q-10.173 10.174-10.173 25.212t10.173 25.212q10.174 10.173 25.212 10.173Zm233.846 0q15.039 0 25.212-10.173 10.173-10.174 10.173-25.212t-10.173-25.212q-10.173-10.173-25.212-10.173-15.038 0-25.211 10.173-10.173 10.174-10.173 25.212t10.173 25.212q10.173 10.173 25.211 10.173ZM253.846-455.384v-61.539h61.539v61.539h-61.539Zm160-200.001v-61.538h61.539v61.538h-61.539Zm-160 360.001v-61.539h61.539v61.539h-61.539Zm0 160v-61.539h61.539v61.539h-61.539Zm-129.231 0v-510.77h160v-200h320.001v216.923h-40v-176.923h-240v200H164.615v470.77h-40ZM440-238.461h360v-132.308H440v132.308Z"/></svg>